<svg xmlns="http://www.w3.org/2000/svg" viewBox="0 0 707.55 706.6"><g id="图层_2" data-name="图层 2"><g id="图层_2-2" data-name="图层 2"><path d="M40.92,235.39a136.71,136.71,0,0,0,62.18,36.17,135.12,135.12,0,0,0,71.06,0,132.5,132.5,0,0,0,61.55-36.17,139.28,139.28,0,0,0,35.53-62.18,135.12,135.12,0,0,0,0-71.06A139.33,139.33,0,0,0,235.71,40,127.89,127.89,0,0,0,174.16,4.44a144.38,144.38,0,0,0-71.06,0Q67.58,13.32,40.92,40A136.64,136.64,0,0,0,4.76,102.15a134.91,134.91,0,0,0,0,71.06A136.58,136.58,0,0,0,40.92,235.39Zm291.86-64.72q-11.41,0-14,10.16a187.87,187.87,0,0,1-137,137q-10.16,2.53-10.15,12.69l-2.54,34.26a15.16,15.16,0,0,0,15.23,15.23H285.83q10.16,0,14,8.88l11.42,31.73a15.31,15.31,0,0,0,8.88,8.88l20.31,7.61q86.28,35.53,152.27,99l8.88,8.89q66,64.71,99,152.27a17.48,17.48,0,0,0,7,7.61q4.44,2.55,10.79,1.27l53.29-12.69a26.92,26.92,0,0,0,22.85-22.84l12.68-54.56a12.42,12.42,0,0,0-1.26-9.52,17.51,17.51,0,0,0-7.62-7q-87.56-33-152.27-99l-8.89-8.88a502.58,502.58,0,0,1-99-152.27l-7.62-20.31a15.31,15.31,0,0,0-8.88-8.88l-31.72-11.42Q381,295,381,284.88V183.36a15.16,15.16,0,0,0-15.22-15.22Z"/></g></g></svg>