<svg xmlns="http://www.w3.org/2000/svg" viewBox="0 0 710.51 710.33"><g id="图层_2" data-name="图层 2"><g id="图层_1-2" data-name="图层 1"><path d="M700.29,592.33l-34,1a110.08,110.08,0,0,1-42.5-13,113.6,113.6,0,0,1-34.5-28q54-65,61-149l4-33a10.65,10.65,0,0,0-2.5-7,8.08,8.08,0,0,0-6.5-3h-50a7.65,7.65,0,0,0-6.5,3.5,8.71,8.71,0,0,0-1.5,7.5l11,46a6.64,6.64,0,0,1-1,6l-48,79a126.29,126.29,0,0,1-15.5-44,112.94,112.94,0,0,1,2.5-46c0-2-.67-3.33-2-4a288,288,0,0,1-54-44l-273-274q-33-33-108-62a658.86,658.86,0,0,0-93-28q-2-1-4.5,1a4.19,4.19,0,0,0-1.5,5,836.65,836.65,0,0,0,29,93q28,74,62,107l273,274a255.11,255.11,0,0,1,44,53q2,3,4,2h1a113.09,113.09,0,0,1,46-2.5,117.2,117.2,0,0,1,43,15.5l-78,48a8.38,8.38,0,0,1-7,1l-45-11a8.77,8.77,0,0,0-7.5,1.5c-2.34,1.67-3.5,4.17-3.5,7.5v49a8,8,0,0,0,3,6.5,10.58,10.58,0,0,0,7,2.5l33-3q84-8,149-62a119.72,119.72,0,0,1,27.5,35.5,132.27,132.27,0,0,1,13.5,43.5l-2,33a10.25,10.25,0,0,0,10,10l99-3a6.77,6.77,0,0,0,5-2,5.76,5.76,0,0,0,2-4l2-100c.66-2.66-.17-5-2.5-7A8.06,8.06,0,0,0,700.29,592.33Z"/></g></g></svg>